<?xml version="1.0" encoding="utf-8"?>
<!-- Generator: Adobe Illustrator 21.0.0, SVG Export Plug-In . SVG Version: 6.00 Build 0)  -->
<svg version="1.1" id="Layer_2" xmlns="http://www.w3.org/2000/svg" xmlns:xlink="http://www.w3.org/1999/xlink" x="0px" y="0px"
	 viewBox="0 0 1400 1400" style="enable-background:new 0 0 1400 1400;" xml:space="preserve">
<style type="text/css">
	.st0{fill:url(#SVGID_1_);}
	.st1{fill:#157E80;}
	.st2{fill:#24A3A3;}
	.st3{fill:url(#SVGID_2_);}
	.st4{fill:#0E262D;}
	.st5{fill:#071E1A;}
	.st6{fill:#3B5453;}
	.st7{fill:#4B6361;}
	.st8{opacity:0.2;fill:#FFD239;}
	.st9{fill:#0F1D3E;}
	.st10{fill:#384E5E;}
	.st11{fill:#506877;}
	.st12{fill:#2A3E3E;}
	.st13{fill:#377992;}
	.st14{fill:#2C6577;}
	.st15{fill:#5295AA;}
	.st16{fill:#202214;}
	.st17{fill:#193C44;}
	.st18{fill:#2E301A;}
	.st19{fill:#0F352F;}
	.st20{opacity:0.3;fill:#FFD239;}
	.st21{fill:#69462F;}
	.st22{fill:#7C543E;}
	.st23{fill:#9B722F;}
	.st24{fill:#11284D;}
	.st25{fill:#2B6977;}
	.st26{fill:#134662;}
	.st27{fill:#0D4056;}
	.st28{fill:#176356;}
	.st29{fill:#111A30;}
	.st30{fill:#2A917F;}
	.st31{fill:#1B5950;}
	.st32{fill:#FFAD00;}
	.st33{fill:#061C32;}
	.st34{fill:#EA9B1C;}
	.st35{fill:#FFC152;}
	.st36{fill:#FFCE43;}
	.st37{fill:#71C6CD;}
	.st38{fill:#26100D;}
	.st39{fill:#3B1C17;}
	.st40{fill:#FDC300;}
	.st41{fill:#FA7A07;}
	.st42{fill:#FFD150;}
	.st43{fill:#F4CE62;}
	.st44{fill:#FFEC66;}
	.st45{fill:#FF8A50;}
	.st46{fill:#F3701E;}
	.st47{fill:#CE5917;}
	.st48{fill:#FCAA86;}
	.st49{fill:#47B23F;}
	.st50{fill:#2E9329;}
	.st51{fill:#237C1C;}
	.st52{fill:#69C961;}
	.st53{fill:#326B9E;}
	.st54{fill:#0F406D;}
	.st55{fill:#174D87;}
	.st56{fill:#417DAA;}
	.st57{fill:#155945;}
	.st58{fill:#564E1F;}
	.st59{fill:#FFD239;}
	.st60{fill:#F88414;}
</style>
<linearGradient id="SVGID_1_" gradientUnits="userSpaceOnUse" x1="705.4807" y1="-23.0318" x2="699.4819" y2="450.8734">
	<stop  offset="0" style="stop-color:#193C44"/>
	<stop  offset="1" style="stop-color:#12635E"/>
</linearGradient>
<rect class="st0" width="1400" height="819.9"/>
<path class="st1" d="M0,206.9l451.5,258c0,0,309-107,318-111.1c9-4,374.1,116.3,374.1,116.3L1400,561v524H0V206.9z"/>
<path class="st2" d="M554.4,568.4l-200-112.3l-166-83.2L304.8,488L106.4,345.4l-82-53.3l88,188.7L0,328.1V206.9l451.5,258l318-111.1
	l374.1,116.3L1400,561v45.1l-245.6-96l139.7,181l-249.7-210.3l-97-31.8l149,112l-244-128.9l-86-48l102,96.7c0,0-126-80.7-132-80.7
	s-252,80.7-252,80.7l322,181.3L554.4,568.4z"/>
<linearGradient id="SVGID_2_" gradientUnits="userSpaceOnUse" x1="701.4584" y1="888.3167" x2="701.4584" y2="465.2743">
	<stop  offset="0" style="stop-color:#203736"/>
	<stop  offset="1" style="stop-color:#193C44"/>
</linearGradient>
<path class="st3" d="M1402.9,1251.6V806.9v-53.3l-6.6-12.3l6.6,0.8v-45l-10.5-21.1l10.5,0.9v-20.9l-27-44.9l21.4,2.3l-23-46.1
	l13.2-1.6l-34.4-83.4l-34.4,83.4l13.2,1.6l-23,46.1l21.4-2.3l-21.4,35.7l-31.4-52.2l21.4,2.3l-23-46.1l13.2-1.6l-34.4-83.4
	l-31.9,77.4l-31.8-77.2l-37,89.8l14.2,1.7l-11.4,22.7l-25-60.7l-34.4,83.4l13.2,1.6l-23,46.1l21.4-2.3l-24.6,40.9l-14.9-29.8
	l23.8,2.1l-40.3-67l21.4,2.3l-23-46.1l13.2-1.6l-34.4-83.4l-34.4,83.4l11.1,1.4l-10.2,24.7l-10.8,21.6l15.9-1.7l-16.8,33.6
	L954.9,578l21.4,2.3l-23-46.1l13.2-1.6l-34.4-83.4l-33,80.1L873,465.8l-34.4,83.4l13.2,1.6l-12.5,25.1l-30-72.8l-8.5,20.7l-17-41.4
	l-34.4,83.4l13.2,1.6l-20.1,40.3l-17.5-35L738,571l-34.4-83.4L669.3,571l13.2,1.6l-23,46.1l21.4-2.3L641.5,682l-20.2-33.7l21.4,2.3
	l-23-46.1l13.2-1.6l-34.4-83.4L583,557.3l-11.5-23.1l13.2-1.6l-34.4-83.4L526,508.1l-10.6-25.7l-23.8,57.7L461,465.8l-34.4,83.4
	l13.2,1.6l-23,46.1l21.4-2.3l-40.3,67l23.8-2.1l-18.6,37.2l-25-41.6l21.4,2.3l-23-46.1l13.2-1.6l-34.4-83.4l-34.4,83.4l13.2,1.6
	l-21.8,43.6l-13.9-23.1l21.4,2.3L297,588l13.2-1.6L275.9,503l-34.4,83.4l13.2,1.6l-19.6,39.2l-19.6-32.6l21.4,2.3l-23-46.1l13.2-1.6
	l-34.4-83.4l-34.4,83.4l13.2,1.6l-23,46.1l21.4-2.3l-40.3,67l23.8-2.1l-29,58.1H79L72,703.4l23.8,2.1l-40.3-67l21.4,2.3l-23-46.1
	l13.2-1.6l-34.4-83.4L0,589.2v4.1l11.6,1.4L0,617.8v21.7l10-1.1L0,655.1v398.3v15.1h132.1v183H1402.9z M1308.5,744.2l-1.4-2.5
	l2.9-0.4L1308.5,744.2z M1314,676.1l-5.8,11.6l-5.3-10.6L1314,676.1z M1301,660.1l-3.6,6l-3.3-6.6L1301,660.1z M1220.8,613.3
	l-5.2-8.6l9.7,1L1220.8,613.3z M1228.2,555.8l-2.5-6l8,1l-11.6,23.1l-8.2-16.3L1228.2,555.8z M1166.6,604.8l-7.3,12.2l-5.4-10.8
	L1166.6,604.8z M1086.2,726.3l-3.2,6.4l-3.6-7.3L1086.2,726.3z M987.5,659.8l-4.2,7l-3.2-6.3L987.5,659.8z M978.3,643.5l-3.6,6
	l-3.3-6.6L978.3,643.5z M897.6,597.7l-1.9-3.1l3.5,0.4L897.6,597.7z M908.5,579.5l-0.7-1.3l1.6-0.2L908.5,579.5z M911,534.2
	l-5.4,10.8l-5-12L911,534.2z M903.3,549.7l-4.8,9.7l-4.3-8.6L903.3,549.7z M850.2,594.6l-9,15l-6.7-13.3L850.2,594.6z M833.4,587.6
	l-1.6,3.1l-1.4-2.8L833.4,587.6z M747.9,618.7l-2.9-5.9l16-1.7l-18.8,31.3l-15.7-26.1L747.9,618.7z M657.4,752.5l-2.6-5.2l5.8-0.7
	L657.4,752.5z M664.5,681.3l-10.6,21.2l-11.6-19.3L664.5,681.3z M648.1,714.2l-4.9,9.9l-5.4-10.8L648.1,714.2z M574.4,578.1
	l-0.5,1.3l-0.8-1.4L574.4,578.1z M494.2,567.4l-1.9,3.8l-2.1-4.3L494.2,567.4z M487.5,550.1l-2.6,6.2l-2.8-5.5L487.5,550.1z
	 M417.9,724.8l-10.8,20.1l-8.8-17.7L417.9,724.8z M332.7,655.1l-10,16.7l-8.8-14.7L332.7,655.1z M253.1,631.8l-7.6,12.7l-6.7-11.2
	L253.1,631.8z M236.2,659.9l-2.2,3.7l-2-4.1L236.2,659.9z"/>
<path class="st4" d="M1335.3,867.4l-18.6-36.4l28.2,2.4l-47.8-77.5l25.4,2.6l-27.3-53.3l15.6-1.9l-40.7-96.5l-40.7,96.5l15.6,1.9
	l-27.3,53.3l25.4-2.6l-47.8,77.5l28.2-2.4l-18.6,36.4h-67l-6.4-11.7l36.3,4.4l-40.9-79.9l28.2,2.4l-47.8-77.5l25.4,2.6l-27.3-53.3
	l15.6-1.9l-40.7-96.5l-40.7,96.5l15.6,1.9l-27.3,53.3l25.4-2.6l-23.3,37.7l-23.2-45.4l15.6-1.9l-40.7-96.5l-40.7,96.5l15.6,1.9
	l-27.3,53.3l25.4-2.6l-47.8,77.5l28.2-2.4l-22.6,44.1h-92.9l-6.4-11.7l36.3,4.4l-40.9-79.9l28.2,2.4L789.2,705l25.4,2.6l-27.3-53.3
	l15.6-1.9L762.3,556l-40.7,96.5l15.6,1.9l-27.3,53.3l25.4-2.6l-20.1,32.6l-31.9-51.8l25.4,2.6l-27.3-53.3l15.6-1.9l-40.7-96.5
	l-40.7,96.5l15.6,1.9l-27.3,53.3l25.4-2.6l-47.8,77.5l28.2-2.4l-40.9,79.9l36.3-4.4l-17,30.8h-35.5l-31.7-61.9l28.2,2.4l-47.8-77.5
	l25.4,2.6l-27.3-53.3l15.6-1.9l-40.7-96.5l-40.7,96.5l15.6,1.9L422,732.9l25.4-2.6l-41.1,66.7l-30.2-49l25.4,2.6l-27.3-53.3
	l15.6-1.9l-40.7-96.5l-40.7,96.5l15.6,1.9l-27.3,53.3l25.4-2.6L279.2,818L250,761l28.2,2.4l-47.8-77.5l25.4,2.6l-27.3-53.3l15.6-1.9
	l-40.7-96.5l-40.7,96.5l15.6,1.9L151,688.5l25.4-2.6l-37.2,60.5L113.8,705l25.4,2.6l-27.3-53.3l15.6-1.9L86.8,556l-40.7,96.5
	l15.6,1.9l-27.3,53.3l25.4-2.6l-47.8,77.5l28.2-2.4l-40.9,79.9l36.3-4.4L0,920.3v313.3h1402.9V867.4H1335.3z M139.8,859.1l-1.9-3.4
	l3.5,0.4L139.8,859.1z M140.2,793.6l-6.9-13.4l13.2,1.1L140.2,793.6z M153,768.7l-4.3-7l8.2-0.7L153,768.7z M280.1,867.4h-8.5
	l-17-30.8l36.3,4.4l-8.2-16l20-1.7L280.1,867.4z M407.3,845.8l-11.6-22.6l22.1,1.9L407.3,845.8z M420.5,820l-8.1-13.2l15.6-1.3
	L420.5,820z M714.2,783.2l-1.4-2.7l2.9-0.2L714.2,783.2z M1017.9,762.8l-9-14.7l17,1.8L1017.9,762.8z M1031.5,784.9l-2.6-4.3
	l5.1-0.4L1031.5,784.9z"/>
<polygon class="st5" points="203.3,985.2 254.4,990.9 196.7,886.5 236.5,889.6 169.2,788.3 205,791.7 166.5,722.1 188.6,719.6 
	131.1,593.6 73.7,719.6 95.7,722.1 57.3,791.7 93.1,788.3 25.8,889.6 65.6,886.5 7.9,990.9 59,985.2 0,1084.3 131.1,1084.3 
	262.3,1084.3 "/>
<polygon class="st5" points="538.5,921.7 589.6,927.4 531.9,823 571.7,826.1 504.4,724.8 540.2,728.3 501.8,658.6 523.8,656.2 
	466.4,530.1 408.9,656.2 430.9,658.6 392.5,728.3 428.3,724.8 361,826.1 400.8,823 343.1,927.4 394.2,921.7 335.2,1020.8 
	466.4,1020.8 597.5,1020.8 "/>
<polygon class="st5" points="867.7,946.5 918.9,952.2 861.2,847.8 900.9,850.9 833.6,749.6 869.5,753 831,683.4 853,681 
	795.6,554.9 738.1,681 760.2,683.4 721.7,753 757.6,749.6 690.2,850.9 730,847.8 672.3,952.2 723.5,946.5 664.4,1045.6 
	795.6,1045.6 926.7,1045.6 "/>
<polygon class="st5" points="1215.8,985.2 1267,990.9 1209.3,886.5 1249,889.6 1181.7,788.3 1217.6,791.7 1179.1,722.1 
	1201.1,719.6 1143.7,593.6 1086.2,719.6 1108.3,722.1 1069.8,791.7 1105.7,788.3 1038.3,889.6 1078.1,886.5 1020.4,990.9 
	1071.6,985.2 1012.5,1084.3 1143.7,1084.3 1274.8,1084.3 "/>
<polygon class="st5" points="1402.9,619.3 1388.5,587.6 1331,713.6 1353.1,716.1 1314.6,785.7 1350.5,782.3 1283.1,883.6 
	1322.9,880.5 1265.2,984.9 1316.4,979.2 1257.3,1078.3 1388.5,1078.3 1402.9,1078.3 "/>
<path class="st6" d="M0,1006.2c0,0,623.3-105.3,1400-29.9V1400H0V1006.2z"/>
<path class="st7" d="M835.6,1203.3l360.7-97.7L1400,1131V976.3C623.3,900.9,0,1006.2,0,1006.2v293.9c15.2,1,310.9,20.6,380.9,7.5
	c19.8-3.7,47.2-10.6,78.5-18.8c13.7,2.5,26.7,7,37,14.9c44,33.4,240,71.4,274,65.4s164-24.4,216-21.2c52,3.2,288.5,52.2,288.5,52.2
	h73.5c0,0-266-65.8-356-68.4s-218,20.7-246-28c-16.7-28.9-29.9-52.8-37.9-67.3c4.9-0.4,9.7-0.6,14.3-0.8
	C821.8,1232.6,835.6,1203.3,835.6,1203.3z"/>
<path class="st8" d="M525.9,1040.1c-34.9-6.5-44.6-43-239.2-21.7c-136.5,14.9-238.2,39.1-286.7,52.2v196.6
	c59.5,20.3,154.7,30.9,239.8,7.3c117.2-32.5,82.5-37.5,283.5-53.8c201-16.3,201-100.7,196.5-115.2
	C715.3,1091.1,560.8,1046.6,525.9,1040.1z"/>
<polygon class="st44" points="484.3,183.3 495.7,181.1 484.3,178.9 482,167.4 479.8,178.9 468.3,181.1 479.8,183.3 482,194.8 "/>
<polygon class="st44" points="408.8,257 415.6,255.6 408.8,254.3 407.5,247.5 406.1,254.3 399.3,255.6 406.1,257 407.5,263.8 "/>
<polygon class="st44" points="124.3,84.6 131.1,83.3 124.3,81.9 123,75.1 121.7,81.9 114.8,83.3 121.7,84.6 123,91.4 "/>
<polygon class="st44" points="709.5,212 716.3,210.7 709.5,209.3 708.1,202.5 706.8,209.3 700,210.7 706.8,212 708.1,218.8 "/>
<polygon class="st44" points="564.5,264.5 568.2,263.8 564.5,263.1 563.8,259.3 563,263.1 559.3,263.8 563,264.5 563.8,268.3 "/>
<polygon class="st44" points="408.2,353.7 411.9,352.9 408.2,352.2 407.5,348.5 406.7,352.2 403,352.9 406.7,353.7 407.5,357.4 "/>
<polygon class="st44" points="297.5,100.3 301.2,99.6 297.5,98.8 296.8,95.1 296.1,98.8 292.3,99.6 296.1,100.3 296.8,104 "/>
<polygon class="st44" points="400,34.9 403.8,34.1 400,33.4 399.3,29.7 398.6,33.4 394.9,34.1 398.6,34.9 399.3,38.6 "/>
<polygon class="st44" points="580.2,380.6 584,379.9 580.2,379.2 579.5,375.4 578.8,379.2 575,379.9 578.8,380.6 579.5,384.3 "/>
<polygon class="st44" points="1275.6,207.7 1279.3,206.9 1275.6,206.2 1274.8,202.5 1274.1,206.2 1270.4,206.9 1274.1,207.7 
	1274.8,211.4 "/>
<polygon class="st44" points="1013.3,131.6 1017,130.9 1013.3,130.2 1012.5,126.4 1011.8,130.2 1008.1,130.9 1011.8,131.6 
	1012.5,135.4 "/>
<polygon class="st44" points="700.7,89.4 704.5,88.7 700.7,88 700,84.2 699.3,88 695.5,88.7 699.3,89.4 700,93.1 "/>
<polygon class="st44" points="1296.4,95.8 1300.2,95.1 1296.4,94.4 1295.7,90.6 1295,94.4 1291.2,95.1 1295,95.8 1295.7,99.6 "/>
<polygon class="st44" points="1292,332.9 1295.7,332.2 1292,331.4 1291.2,327.7 1290.5,331.4 1286.8,332.2 1290.5,332.9 
	1291.2,336.6 "/>
<polygon class="st44" points="1091.7,349.2 1095.4,348.5 1091.7,347.7 1091,344 1090.2,347.7 1086.5,348.5 1090.2,349.2 1091,352.9 
	"/>
<polygon class="st44" points="791.9,256.4 795.6,255.6 791.9,254.9 791.1,251.2 790.4,254.9 786.7,255.6 790.4,256.4 791.1,260.1 
	"/>
<polygon class="st44" points="168.5,207.7 172.3,206.9 168.5,206.2 167.8,202.5 167.1,206.2 163.3,206.9 167.1,207.7 167.8,211.4 
	"/>
<polygon class="st44" points="35.1,65 38.8,64.3 35.1,63.6 34.3,59.8 33.6,63.6 29.9,64.3 33.6,65 34.3,68.8 "/>
<polygon class="st44" points="1323.3,65.6 1330.1,64.3 1323.3,63 1322,56.1 1320.7,63 1313.8,64.3 1320.7,65.6 1322,72.4 "/>
<polygon class="st44" points="1258.7,346.1 1265.5,344.8 1258.7,343.5 1257.3,336.6 1256,343.5 1249.2,344.8 1256,346.1 
	1257.3,352.9 "/>
<polygon class="st44" points="898.1,92.7 904.9,91.4 898.1,90.1 896.8,83.3 895.4,90.1 888.6,91.4 895.4,92.7 896.8,99.6 "/>
<polygon class="st44" points="970.1,248.8 976.9,247.5 970.1,246.2 968.8,239.4 967.4,246.2 960.6,247.5 967.4,248.8 968.8,255.6 
	"/>
<polygon class="st44" points="1159.6,104.6 1171.1,102.4 1159.6,100.2 1157.4,88.7 1155.2,100.2 1143.7,102.4 1155.2,104.6 
	1157.4,116.1 "/>
<g>
	<polygon class="st45" points="466.4,1150.9 664.4,782.3 835.6,1203.3 	"/>
	<polygon class="st46" points="676.8,1153.6 676.8,1163.2 641.7,1175.8 663.3,1030.5 	"/>
	<path class="st46" d="M1035.9,823.1c0,0-211.2,0-371.4-40.8l171.1,421l394.7-37.9L1035.9,823.1z"/>
	<path class="st47" d="M1035.9,823.1c0,0-211.2,0-371.4-40.8l171.1,421l375.2-36c-271.5-4-372.3-130.8-372.3-130.8
		c93.2,68.5,206.8,92.5,206.1,90.3c-0.7-2.2-36.4-8.7-134.7-83C811.6,969.5,703,806.4,703,806.4S733.6,818,827.6,829
		S1035.9,823.1,1035.9,823.1z"/>
	<polygon class="st16" points="664.4,782.3 618.9,1172.5 641.7,1175.8 	"/>
	<path class="st48" d="M641.7,1175.8c0,0,11.5-20.2,43.2-23.4l-20.4-370L641.7,1175.8z"/>
</g>
<g>
	<g>
		<path class="st21" d="M57.7,1121.8l134.6-32.1l-7.6-22.6l-133.4,18C51.3,1085,19.5,1110.2,57.7,1121.8z"/>
		<path class="st22" d="M184.7,1067l-133.4,18c0,0-9.2,7.3-11.8,15.9c3.2,0.3,41.2-5.2,53.2-8.2c12-3.1,23.7,0.5,23.7,0.5l71.7-15.5
			L184.7,1067z"/>
		<path class="st23" d="M67.7,1095.2c-1.6-6.3-16.3-10.2-16.3-10.2s-31.9,25.2,6.4,36.8C75.3,1108,67.7,1095.2,67.7,1095.2z"/>
	</g>
	<g>
		<path class="st21" d="M279,1121.5l-136.9-20l5.6-23.2l134.5,6C282.1,1084.3,316.1,1106.6,279,1121.5z"/>
		<path class="st22" d="M147.6,1078.3l134.5,6c0,0,9.8,6.5,13.2,14.8c-3.1,0.6-41.5-1.5-53.7-3.5c-12.2-2-23.6,2.6-23.6,2.6
			l-72.9-9.1L147.6,1078.3z"/>
		<path class="st23" d="M266.8,1095.9c1.1-6.5,15.3-11.6,15.3-11.6s34,22.3-3.1,37.2C260.3,1109.3,266.8,1095.9,266.8,1095.9z"/>
	</g>
	<g>
		<path class="st21" d="M70,1168.9l121.3-66.6l-13.3-19.8l-123.9,52.6C54.1,1135.1,30.1,1167.8,70,1168.9z"/>
		<path class="st22" d="M178,1082.5l-123.9,52.6c0,0-7,9.5-7.2,18.4c3.1-0.6,38.4-15.9,49.2-22c10.8-6.1,23-5.8,23-5.8l65.1-33.9
			L178,1082.5z"/>
		<path class="st23" d="M72.6,1140.6c-3.2-5.7-18.4-5.5-18.4-5.5s-24.1,32.8,15.9,33.8C83.3,1150.9,72.6,1140.6,72.6,1140.6z"/>
	</g>
	<g>
		<path class="st21" d="M130.6,1196.3l75.7-115.9l-21.1-11.2L100.7,1174C100.7,1174,94.9,1214.2,130.6,1196.3z"/>
		<path class="st22" d="M185.3,1069.2L100.7,1174c0,0-1.7,11.7,2.4,19.6c2.5-2,26.4-32.1,33-42.6c6.6-10.5,17.6-16,17.6-16
			l41.4-60.6L185.3,1069.2z"/>
		<path class="st23" d="M119.6,1170.2c-5.5-3.5-18.9,3.8-18.9,3.8s-5.8,40.2,29.9,22.3C133.9,1174.2,119.6,1170.2,119.6,1170.2z"/>
	</g>
	<g>
		<path class="st21" d="M246.8,1179.9l-88.9-106.1l19.6-13.6l96.4,94C273.9,1154.2,284.4,1193.4,246.8,1179.9z"/>
		<path class="st22" d="M177.5,1060.2l96.4,94c0,0,3,11.4,0,19.8c-2.7-1.7-30-28.7-37.8-38.3c-7.8-9.6-19.4-13.8-19.4-13.8
			l-48.3-55.3L177.5,1060.2z"/>
		<path class="st23" d="M254.7,1152.6c5.1-4.1,19.2,1.6,19.2,1.6s10.5,39.3-27.1,25.7C240.9,1158.4,254.7,1152.6,254.7,1152.6z"/>
	</g>
	<g>
		<path class="st21" d="M166,1184.9l6.8-138.2l23.6,3.3l6.9,134.4C203.4,1184.4,184.4,1220.4,166,1184.9z"/>
		<path class="st22" d="M196.5,1050l6.9,134.4c0,0-5.5,10.4-13.4,14.5c-0.9-3.1-2.5-41.5-1.7-53.8c0.8-12.4-4.8-23.3-4.8-23.3
			l2.1-73.4L196.5,1050z"/>
		<path class="st23" d="M190.4,1170.2c6.5,0.4,13,14.2,13,14.2s-19,36-37.3,0.5C176.3,1165.1,190.4,1170.2,190.4,1170.2z"/>
	</g>
	<path class="st59" d="M272.7,1046.7c0,0,0.5,7-7.1,20.3c-7.6,13.3-23.1,11.7-12.9,2.2c10.2-9.5,14.3-43.7,4.1-67.8
		S220.2,960,220.2,960s3.4,12.8,6.5,28.7c3.1,15.9-20.5,24.6-31.6,20c-11.1-4.6,6-22.5,5.5-49.1c-0.5-26.6-34.5-44-34.5-44
		s-4.4,46.6-23.9,80.9c-0.7,1.3-1.5,2.6-2.3,3.8c-9,5-18.4,5.4-24.2,4.2c-10.2-2-1.7-44.4-1.7-44.4s-6.5,4.1-21.6,42.3
		c-15.1,38.2,6.1,66.9,6.1,66.9c4.1,23.3,25.6,36.6,25.6,36.6c18.9-14.5,25,8.2,25,8.2s9.7-10.9,14.2-9.5c4.5,1.4,6.3,9.7,6.3,9.7
		s10.9-12.5,20.1-11.4c9.2,1.1,10.4,16.4,10.4,16.4s5.1-20.1,11.8-19.4c6.7,0.6,16,9.4,16,9.4c36.5-0.2,51.1-28,53.2-35.7
		S272.7,1046.7,272.7,1046.7z"/>
	<path class="st60" d="M248.9,1088.7c-8,8.2-27.5,4.4-28.8-2.4c-1.2-6.8,21.4-18.8,26.5-33.1c5.1-14.3,0-32.8,0-32.8
		s-5.1,28.7-16.4,37.5c-11.3,8.9-35.5,11.9-35.2-3.1c0.3-15-25.9-31.7-34.1-42c-8.2-10.2,5.1-33.4,5.1-33.4s-8.1,10.6-15,24.6
		c-6.8,14,3.1,44.4,0,52.9c-3.1,8.5-24.9,13-25.9,5.8s-9.6-15-13.7-16c-4.1-1-13-18.1-13-18.1s2.4,15.7,6.8,25.3
		c4.4,9.6,4.4,16.7,4.8,28.7c0.1,4.9,3.3,11.6,6.9,18c4,3.6,7,5.4,7,5.4c18.9-14.5,25,8.2,25,8.2s9.7-10.9,14.2-9.5
		c4.5,1.4,6.3,9.7,6.3,9.7s10.9-12.5,20.1-11.4c9.2,1.1,10.4,16.4,10.4,16.4s5.1-20.1,11.8-19.4c6.7,0.6,16,9.4,16,9.4
		c1.5,0,2.9-0.1,4.2-0.2C241,1100.9,248.9,1088.7,248.9,1088.7z"/>
</g>
</svg>
